<svg
    xmlns="http://www.w3.org/2000/svg"
    width="50"
    height="50"
    viewBox="0 0 25 24"
    fill="none"
    class="img-svg replaced-svg"
    >
    <g opacity="0.7" clip-path="url(#clip0_548_283)">
        <path
        d="M8.24531 2.00003H16.6453C19.8485 2.00003 22.4453 4.59678 22.4453 7.80003V16.2C22.4453 19.4033 19.8485 22 16.6453 22H8.24531C5.04206 22 2.44531 19.4033 2.44531 16.2V7.80003C2.44531 4.59678 5.04206 2.00003 8.24531 2.00003ZM8.04531 4.00001C6.05708 4.00001 4.44531 5.61179 4.44531 7.60001V16.4C4.44531 18.3882 6.05708 20 8.04531 20H16.8453C18.8335 20 20.4453 18.3882 20.4453 16.4V7.60001C20.4453 5.61179 18.8335 4.00001 16.8453 4.00001H8.04531ZM17.6953 5.50001C18.3857 5.50001 18.9453 6.05966 18.9453 6.75001C18.9453 7.44037 18.3857 8.00001 17.6953 8.00001C17.0049 8.00001 16.4453 7.44037 16.4453 6.75001C16.4453 6.05966 17.0049 5.50001 17.6953 5.50001ZM12.4453 7.00001C15.2067 7.00001 17.4453 9.23859 17.4453 12C17.4453 14.7614 15.2067 17 12.4453 17C9.68388 17 7.44531 14.7614 7.44531 12C7.44531 9.23859 9.68388 7.00001 12.4453 7.00001ZM12.4453 9.00001C10.7884 9.00001 9.44531 10.3432 9.44531 12C9.44531 13.6569 10.7884 15 12.4453 15C14.1022 15 15.4453 13.6569 15.4453 12C15.4453 10.3432 14.1022 9.00001 12.4453 9.00001Z"
        fill="#C4AA79"
        ></path>
    </g>
    <defs>
        <clipPath id="clip0_548_283">
        <rect
            width="24"
            height="24"
            fill="white"
            transform="translate(0.445312)"
        ></rect>
        </clipPath>
    </defs>
</svg>