<svg xmlns="http://www.w3.org/2000/svg" width="350" height="250" viewBox="0 0 197 72" fill="none"><g clip-path="url(#clip0_554:350)"><path d="M27.9973 69.4562L27.2133 71.8341H26.2053L28.8373 64.2581H30.0133L32.6453 71.8341H31.5813L30.7413 69.4562H27.9973ZM30.5173 68.682L29.7893 66.4701C29.6213 65.9724 29.5093 65.53 29.3973 65.0876C29.2853 65.53 29.1733 66.0277 29.0053 66.4701L28.2773 68.682H30.5173Z" fill="#C4AA79"/><path d="M45.8054 64.2581V68.7373C45.8054 70.4516 46.5894 71.1705 47.5974 71.1705C48.7174 71.1705 49.4454 70.4516 49.4454 68.7373V64.2581H50.4534V68.682C50.4534 71.0046 49.2214 71.9447 47.5414 71.9447C45.9734 71.9447 44.7974 71.0599 44.7974 68.682V64.2028H45.8054V64.2581Z" fill="#C4AA79"/><path d="M65.0693 65.0876H62.7173V64.2581H68.4293V65.0876H66.0773V71.8341H65.0693V65.0876Z" fill="#C4AA79"/><path d="M86.9653 67.9631C86.9653 70.5622 85.3413 71.9447 83.3813 71.9447C81.3653 71.9447 79.9093 70.3963 79.9093 68.0737C79.9093 65.6406 81.4213 64.0922 83.4933 64.0922C85.6213 64.1475 86.9653 65.7512 86.9653 67.9631ZM81.0293 68.0737C81.0293 69.6774 81.9253 71.1705 83.4933 71.1705C85.0613 71.1705 85.9573 69.7327 85.9573 68.0184C85.9573 66.5253 85.1733 64.9217 83.4933 64.9217C81.8133 64.9217 81.0293 66.4147 81.0293 68.0737Z" fill="#C4AA79"/><path d="M106.173 68.5161C106.117 67.4654 106.061 66.1936 106.061 65.2535H106.005C105.725 66.1383 105.445 67.0783 105.053 68.129L103.709 71.8341H102.925L101.693 68.2396C101.301 67.1889 101.021 66.1936 100.797 65.3088C100.797 66.2489 100.741 67.5207 100.629 68.682L100.405 71.9447H99.4533L100.013 64.3687H101.301L102.589 68.0184C102.925 68.9585 103.149 69.788 103.373 70.5622H103.429C103.597 69.788 103.877 68.9585 104.213 68.0184L105.557 64.3687H106.845L107.349 71.9447H106.397L106.173 68.5161Z" fill="#C4AA79"/><path d="M126.837 67.9631C126.837 70.5622 125.213 71.9447 123.253 71.9447C121.237 71.9447 119.781 70.3963 119.781 68.0737C119.781 65.6406 121.293 64.0922 123.365 64.0922C125.437 64.1475 126.837 65.7512 126.837 67.9631ZM120.845 68.0737C120.845 69.6774 121.741 71.1705 123.309 71.1705C124.877 71.1705 125.773 69.7327 125.773 68.0184C125.773 66.5253 124.989 64.9217 123.309 64.9217C121.685 64.9217 120.845 66.4147 120.845 68.0737Z" fill="#C4AA79"/><path d="M139.493 64.3687C139.941 64.2581 140.613 64.2028 141.285 64.2028C142.293 64.2028 142.909 64.3687 143.413 64.7558C143.805 65.0323 144.029 65.4747 144.029 66.083C144.029 66.8019 143.525 67.4655 142.741 67.7419C143.469 67.9078 144.309 68.5161 144.309 69.6221C144.309 70.2857 144.029 70.7834 143.637 71.1152C143.077 71.6129 142.237 71.8341 141.005 71.8341C140.333 71.8341 139.773 71.7788 139.493 71.7235V64.3687ZM140.501 67.4655H141.397C142.461 67.4655 143.077 66.9125 143.077 66.1936C143.077 65.3088 142.405 64.977 141.397 64.977C140.949 64.977 140.669 65.0323 140.501 65.0323V67.4655ZM140.501 71.1152C140.669 71.1705 141.005 71.1705 141.341 71.1705C142.349 71.1705 143.301 70.7834 143.301 69.6774C143.301 68.6267 142.405 68.2396 141.341 68.2396H140.501V71.1152Z" fill="#C4AA79"/><path d="M158.085 64.2581V71.8341H157.077V64.2581H158.085Z" fill="#C4AA79"/><path d="M171.245 64.2581H172.253V71.0046H175.557V71.8341H171.245V64.2581Z" fill="#C4AA79"/><path d="M192.021 68.2949H189.053V71.0046H192.357V71.8341H188.045V64.2581H192.189V65.0876H189.053V67.4654H192.021V68.2949Z" fill="#C4AA79"/><path d="M38.7493 5.86176H57.3413V6.35945C52.5253 6.35945 49.7813 9.29033 43.3413 22.1751L28.1093 52.7005L11.3093 18.2489C7.16531 9.73272 5.20531 6.35945 0.445312 6.35945V5.86176H27.3253V6.35945C21.0533 6.35945 22.3413 11.2811 25.5333 18.1383L34.8293 37.7696L42.6693 22.1198C47.7653 11.8894 46.0853 6.35945 38.8053 6.35945L38.7493 5.86176Z" fill="black"/><path d="M55.4933 51.3733V50.8756C60.1413 50.8756 60.7573 49.5484 60.7573 43.3548V27.0415C60.7573 22.6728 60.4773 20.4055 54.8213 21.6221L54.7093 21.1244L73.1333 16.7558L73.0213 24.2212V43.2995C73.0213 49.5484 73.6373 50.8203 78.2853 50.8203V51.318H55.4933V51.3733ZM59.6373 7.07834C59.6373 3.15207 62.9413 0 66.8613 0C70.8933 0 74.0853 3.09677 74.0853 7.07834C74.0853 11.0599 70.8373 14.3226 66.8613 14.3226C62.9413 14.3226 59.6373 11.0599 59.6373 7.07834Z" fill="black"/><path d="M107.461 16.6452C115.301 16.6452 120.341 23.1705 120.341 32.9032C120.341 43.9631 112.333 51.871 100.573 51.871C98.6693 51.871 93.3493 51.3733 90.2133 49.6037L84.1093 51.8157V10.2857C84.1093 5.91705 83.8293 3.64977 78.1733 4.86636L78.0613 4.36866L96.5413 0L96.2613 23.5576C99.1733 19.1336 102.925 16.6452 107.461 16.6452ZM100.629 51.3733C105.053 51.3733 106.957 46.1751 106.957 32.9032C106.957 30.6359 106.901 19.9631 101.693 19.9631C99.4533 19.9631 98.0533 21.8986 96.3733 24.3318V44.5161C96.3173 47.8894 96.5973 51.3733 100.629 51.3733Z" fill="black"/><path d="M159.261 39.2074C156.349 46.1751 150.357 51.871 141.229 51.871C132.101 51.871 124.317 45.4562 124.317 34.8387C124.317 24.1659 131.933 16.6452 143.525 16.6452C154.781 16.6452 160.773 22.2857 158.645 30.5806H136.749C137.029 39.8157 142.013 43.8525 148.341 43.8525C151.645 43.8525 156.517 42.6359 158.869 39.0415L159.261 39.2074ZM143.525 17.1429C137.869 17.1429 136.749 24.9954 136.749 29.6959C136.749 29.7512 136.749 29.8064 136.749 29.917H146.997C148.061 25.8802 148.621 17.1429 143.525 17.1429Z" fill="black"/><path d="M168.781 50.5991L164.133 51.7604L163.405 37.8249H163.853C165.421 48.8295 174.045 51.3733 178.805 51.3733C183.005 51.3733 187.317 50.212 187.317 46.7834C187.317 39.7051 163.405 40.4793 163.405 27.6498C163.405 19.6313 172.141 16.6452 180.261 16.6452C182.893 16.6452 186.141 17.1429 188.493 17.8617L192.525 16.7558L193.197 28.2581H192.749C191.069 20.1843 185.301 17.1429 180.205 17.1429C175.557 17.1429 172.981 19.2995 172.981 21.7327C172.981 29.1429 196.445 27.2074 196.445 39.9816C196.445 48.3318 188.157 51.8157 178.805 51.8157C176.285 51.871 172.757 51.4286 168.781 50.5991Z" fill="black"/></g><defs><clipPath id="clip0_554:350"><rect width="196" height="72" fill="black" transform="translate(0.445312)"/></clipPath></defs></svg>